<?xml version="1.0" encoding="UTF-8" standalone="no"?><svg xmlns="http://www.w3.org/2000/svg" xmlns:xlink="http://www.w3.org/1999/xlink" contentStyleType="text/css" height="1025px" preserveAspectRatio="none" style="width:910px;height:1025px;background:#FFFFFF;" version="1.1" viewBox="0 0 910 1025" width="910px" zoomAndPan="magnify"><defs/><g><rect fill="none" height="26.2969" id="_title" style="stroke:none;stroke-width:1.0;" width="149" x="379" y="15"/><text fill="#000000" font-family="sans-serif" font-size="14" font-weight="bold" lengthAdjust="spacing" textLength="139" x="384" y="32.9951">Order Processing</text><ellipse cx="87" cy="85.9951" fill="#222222" rx="10" ry="10" style="stroke:#222222;stroke-width:1.0;"/><rect fill="#F1F1F1" height="33.9688" rx="12.5" ry="12.5" style="stroke:#181818;stroke-width:0.5;" width="132" x="21" y="115.9951"/><text fill="#000000" font-family="sans-serif" font-size="12" lengthAdjust="spacing" textLength="112" x="31" y="137.1338">Browses products</text><rect fill="#F1F1F1" height="33.9688" rx="12.5" ry="12.5" style="stroke:#181818;stroke-width:0.5;" width="96" x="39" y="169.9639"/><text fill="#000000" font-family="sans-serif" font-size="12" lengthAdjust="spacing" textLength="76" x="49" y="191.1025">Starts order</text><rect fill="#F1F1F1" height="33.9688" rx="12.5" ry="12.5" style="stroke:#181818;stroke-width:0.5;" width="112" x="31" y="643.8076"/><text fill="#000000" font-family="sans-serif" font-size="12" lengthAdjust="spacing" textLength="92" x="41" y="664.9463">Confirms order</text><ellipse cx="87" cy="1002.6514" fill="none" rx="11" ry="11" style="stroke:#222222;stroke-width:1.0;"/><ellipse cx="87" cy="1002.6514" fill="#222222" rx="6" ry="6" style="stroke:#111111;stroke-width:1.0;"/><line style="stroke:#000000;stroke-width:1.5;" x1="15" x2="15" y1="50.042" y2="1013.6514"/><rect fill="#F1F1F1" height="33.9688" rx="12.5" ry="12.5" style="stroke:#181818;stroke-width:0.5;" width="245" x="243.25" y="223.9326"/><text fill="#000000" font-family="sans-serif" font-size="12" lengthAdjust="spacing" textLength="225" x="253.25" y="245.0713">Creates order with status "Pending"</text><rect fill="#F1F1F1" height="33.9688" rx="12.5" ry="12.5" style="stroke:#181818;stroke-width:0.5;" width="166" x="282.75" y="321.9014"/><text fill="#000000" font-family="sans-serif" font-size="12" lengthAdjust="spacing" textLength="146" x="292.75" y="343.04">Adds products to order</text><rect fill="#555555" height="6" rx="2.5" ry="2.5" style="stroke:#555555;stroke-width:1.0;" width="373" x="179.25" y="375.8701"/><rect fill="#F1F1F1" height="33.9688" rx="12.5" ry="12.5" style="stroke:#181818;stroke-width:0.5;" width="186" x="193.25" y="401.8701"/><text fill="#000000" font-family="sans-serif" font-size="12" lengthAdjust="spacing" textLength="166" x="203.25" y="423.0088">Checks product availability</text><rect fill="#F1F1F1" height="33.9688" rx="12.5" ry="12.5" style="stroke:#181818;stroke-width:0.5;" width="131" x="407.25" y="401.8701"/><text fill="#000000" font-family="sans-serif" font-size="12" lengthAdjust="spacing" textLength="111" x="417.25" y="423.0088">Logs user actions</text><rect fill="#555555" height="6" rx="2.5" ry="2.5" style="stroke:#555555;stroke-width:1.0;" width="373" x="179.25" y="455.8389"/><polygon fill="#F1F1F1" points="365.75,481.8389,365.75,481.8389,377.75,493.8389,365.75,505.8389,365.75,505.8389,353.75,493.8389,365.75,481.8389" style="stroke:#181818;stroke-width:0.5;"/><text fill="#000000" font-family="sans-serif" font-size="11" lengthAdjust="spacing" textLength="97" x="256.75" y="491.2446">Product available</text><text fill="#000000" font-family="sans-serif" font-size="11" lengthAdjust="spacing" textLength="119" x="377.75" y="491.2446">Product not available</text><rect fill="#F1F1F1" height="33.9688" rx="12.5" ry="12.5" style="stroke:#181818;stroke-width:0.5;" width="129" x="209" y="515.8389"/><text fill="#000000" font-family="sans-serif" font-size="12" lengthAdjust="spacing" textLength="109" x="219" y="536.9775">Confirms addition</text><rect fill="#F1F1F1" height="33.9688" rx="12.5" ry="12.5" style="stroke:#181818;stroke-width:0.5;" width="200" x="358" y="515.8389"/><text fill="#000000" font-family="sans-serif" font-size="12" lengthAdjust="spacing" textLength="180" x="368" y="536.9775">Shows out-of-stock message</text><polygon fill="#F1F1F1" points="365.75,555.8076,377.75,567.8076,365.75,579.8076,353.75,567.8076,365.75,555.8076" style="stroke:#181818;stroke-width:0.5;"/><polygon fill="#F1F1F1" points="365.75,277.9014,377.75,289.9014,365.75,301.9014,353.75,289.9014,365.75,277.9014" style="stroke:#181818;stroke-width:0.5;"/><polygon fill="#F1F1F1" points="311.75,599.8076,419.75,599.8076,431.75,611.8076,419.75,623.8076,311.75,623.8076,299.75,611.8076,311.75,599.8076" style="stroke:#181818;stroke-width:0.5;"/><text fill="#000000" font-family="sans-serif" font-size="11" lengthAdjust="spacing" textLength="108" x="311.75" y="615.6157">Wants to add more</text><rect fill="#F1F1F1" height="33.9688" rx="12.5" ry="12.5" style="stroke:#181818;stroke-width:0.5;" width="175" x="163.5" y="849.7139"/><text fill="#000000" font-family="sans-serif" font-size="12" lengthAdjust="spacing" textLength="155" x="173.5" y="870.8525">Updates status to "Paid"</text><rect fill="#F1F1F1" height="33.9688" rx="12.5" ry="12.5" style="stroke:#181818;stroke-width:0.5;" width="176" x="163" y="903.6826"/><text fill="#000000" font-family="sans-serif" font-size="12" lengthAdjust="spacing" textLength="156" x="173" y="924.8213">Shows success message</text><rect fill="#F1F1F1" height="33.9688" rx="12.5" ry="12.5" style="stroke:#181818;stroke-width:0.5;" width="243" x="359" y="849.7139"/><text fill="#000000" font-family="sans-serif" font-size="12" lengthAdjust="spacing" textLength="223" x="369" y="870.8525">Updates status to "Payment Failed"</text><rect fill="#F1F1F1" height="33.9688" rx="12.5" ry="12.5" style="stroke:#181818;stroke-width:0.5;" width="164" x="398.5" y="903.6826"/><text fill="#000000" font-family="sans-serif" font-size="12" lengthAdjust="spacing" textLength="144" x="408.5" y="924.8213">Shows failure message</text><line style="stroke:#000000;stroke-width:1.5;" x1="157" x2="157" y1="50.042" y2="1013.6514"/><rect fill="#F1F1F1" height="33.9688" rx="12.5" ry="12.5" style="stroke:#181818;stroke-width:0.5;" width="179" x="647.5" y="697.7764"/><text fill="#000000" font-family="sans-serif" font-size="12" lengthAdjust="spacing" textLength="159" x="657.5" y="718.915">Creates payment session</text><rect fill="#F1F1F1" height="33.9688" rx="12.5" ry="12.5" style="stroke:#181818;stroke-width:0.5;" width="143" x="665.5" y="751.7451"/><text fill="#000000" font-family="sans-serif" font-size="12" lengthAdjust="spacing" textLength="123" x="675.5" y="772.8838">Processes payment</text><polygon fill="#F1F1F1" points="737,805.7139,737,805.7139,749,817.7139,737,829.7139,737,829.7139,725,817.7139,737,805.7139" style="stroke:#181818;stroke-width:0.5;"/><text fill="#000000" font-family="sans-serif" font-size="11" lengthAdjust="spacing" textLength="114" x="611" y="815.1196">Payment successful</text><text fill="#000000" font-family="sans-serif" font-size="11" lengthAdjust="spacing" textLength="136" x="749" y="815.1196">Payment not successful</text><polygon fill="#F1F1F1" points="737,947.6514,749,959.6514,737,971.6514,725,959.6514,737,947.6514" style="stroke:#181818;stroke-width:0.5;"/><line style="stroke:#000000;stroke-width:1.5;" x1="606" x2="606" y1="50.042" y2="1013.6514"/><line style="stroke:#000000;stroke-width:1.5;" x1="890" x2="890" y1="50.042" y2="1013.6514"/><line style="stroke:#181818;stroke-width:1.0;" x1="87" x2="87" y1="95.9951" y2="115.9951"/><polygon fill="#181818" points="83,105.9951,87,115.9951,91,105.9951,87,109.9951" style="stroke:#181818;stroke-width:1.0;"/><line style="stroke:#181818;stroke-width:1.0;" x1="87" x2="87" y1="149.9639" y2="169.9639"/><polygon fill="#181818" points="83,159.9639,87,169.9639,91,159.9639,87,163.9639" style="stroke:#181818;stroke-width:1.0;"/><line style="stroke:#181818;stroke-width:1.0;" x1="286.25" x2="286.25" y1="381.8701" y2="401.8701"/><polygon fill="#181818" points="282.25,391.8701,286.25,401.8701,290.25,391.8701,286.25,395.8701" style="stroke:#181818;stroke-width:1.0;"/><line style="stroke:#181818;stroke-width:1.0;" x1="472.75" x2="472.75" y1="381.8701" y2="401.8701"/><polygon fill="#181818" points="468.75,391.8701,472.75,401.8701,476.75,391.8701,472.75,395.8701" style="stroke:#181818;stroke-width:1.0;"/><line style="stroke:#181818;stroke-width:1.0;" x1="286.25" x2="286.25" y1="435.8389" y2="455.8389"/><polygon fill="#181818" points="282.25,445.8389,286.25,455.8389,290.25,445.8389,286.25,449.8389" style="stroke:#181818;stroke-width:1.0;"/><line style="stroke:#181818;stroke-width:1.0;" x1="472.75" x2="472.75" y1="435.8389" y2="455.8389"/><polygon fill="#181818" points="468.75,445.8389,472.75,455.8389,476.75,445.8389,472.75,449.8389" style="stroke:#181818;stroke-width:1.0;"/><line style="stroke:#181818;stroke-width:1.0;" x1="365.75" x2="365.75" y1="355.8701" y2="375.8701"/><polygon fill="#181818" points="361.75,365.8701,365.75,375.8701,369.75,365.8701,365.75,369.8701" style="stroke:#181818;stroke-width:1.0;"/><line style="stroke:#181818;stroke-width:1.0;" x1="353.75" x2="273.5" y1="493.8389" y2="493.8389"/><line style="stroke:#181818;stroke-width:1.0;" x1="273.5" x2="273.5" y1="493.8389" y2="515.8389"/><polygon fill="#181818" points="269.5,505.8389,273.5,515.8389,277.5,505.8389,273.5,509.8389" style="stroke:#181818;stroke-width:1.0;"/><line style="stroke:#181818;stroke-width:1.0;" x1="377.75" x2="458" y1="493.8389" y2="493.8389"/><line style="stroke:#181818;stroke-width:1.0;" x1="458" x2="458" y1="493.8389" y2="515.8389"/><polygon fill="#181818" points="454,505.8389,458,515.8389,462,505.8389,458,509.8389" style="stroke:#181818;stroke-width:1.0;"/><line style="stroke:#181818;stroke-width:1.0;" x1="273.5" x2="273.5" y1="549.8076" y2="567.8076"/><line style="stroke:#181818;stroke-width:1.0;" x1="273.5" x2="353.75" y1="567.8076" y2="567.8076"/><polygon fill="#181818" points="343.75,563.8076,353.75,567.8076,343.75,571.8076,347.75,567.8076" style="stroke:#181818;stroke-width:1.0;"/><line style="stroke:#181818;stroke-width:1.0;" x1="458" x2="458" y1="549.8076" y2="567.8076"/><line style="stroke:#181818;stroke-width:1.0;" x1="458" x2="377.75" y1="567.8076" y2="567.8076"/><polygon fill="#181818" points="387.75,563.8076,377.75,567.8076,387.75,571.8076,383.75,567.8076" style="stroke:#181818;stroke-width:1.0;"/><line style="stroke:#181818;stroke-width:1.0;" x1="365.75" x2="365.75" y1="461.8389" y2="481.8389"/><polygon fill="#181818" points="361.75,471.8389,365.75,481.8389,369.75,471.8389,365.75,475.8389" style="stroke:#181818;stroke-width:1.0;"/><line style="stroke:#181818;stroke-width:1.0;" x1="365.75" x2="365.75" y1="301.9014" y2="321.9014"/><polygon fill="#181818" points="361.75,311.9014,365.75,321.9014,369.75,311.9014,365.75,315.9014" style="stroke:#181818;stroke-width:1.0;"/><line style="stroke:#181818;stroke-width:1.0;" x1="431.75" x2="580" y1="611.8076" y2="611.8076"/><polygon fill="#181818" points="576,460.8545,580,450.8545,584,460.8545,580,456.8545" style="stroke:#181818;stroke-width:1.0;"/><line style="stroke:#181818;stroke-width:1.0;" x1="580" x2="580" y1="289.9014" y2="611.8076"/><line style="stroke:#181818;stroke-width:1.0;" x1="580" x2="377.75" y1="289.9014" y2="289.9014"/><polygon fill="#181818" points="387.75,285.9014,377.75,289.9014,387.75,293.9014,383.75,289.9014" style="stroke:#181818;stroke-width:1.0;"/><line style="stroke:#181818;stroke-width:1.0;" x1="365.75" x2="365.75" y1="579.8076" y2="599.8076"/><polygon fill="#181818" points="361.75,589.8076,365.75,599.8076,369.75,589.8076,365.75,593.8076" style="stroke:#181818;stroke-width:1.0;"/><line style="stroke:#181818;stroke-width:1.0;" x1="365.75" x2="365.75" y1="257.9014" y2="277.9014"/><polygon fill="#181818" points="361.75,267.9014,365.75,277.9014,369.75,267.9014,365.75,271.9014" style="stroke:#181818;stroke-width:1.0;"/><line style="stroke:#181818;stroke-width:1.0;" x1="251" x2="251" y1="883.6826" y2="903.6826"/><polygon fill="#181818" points="247,893.6826,251,903.6826,255,893.6826,251,897.6826" style="stroke:#181818;stroke-width:1.0;"/><line style="stroke:#181818;stroke-width:1.0;" x1="480.5" x2="480.5" y1="883.6826" y2="903.6826"/><polygon fill="#181818" points="476.5,893.6826,480.5,903.6826,484.5,893.6826,480.5,897.6826" style="stroke:#181818;stroke-width:1.0;"/><line style="stroke:#181818;stroke-width:1.0;" x1="737" x2="737" y1="731.7451" y2="751.7451"/><polygon fill="#181818" points="733,741.7451,737,751.7451,741,741.7451,737,745.7451" style="stroke:#181818;stroke-width:1.0;"/><line style="stroke:#181818;stroke-width:1.0;" x1="737" x2="737" y1="785.7139" y2="805.7139"/><polygon fill="#181818" points="733,795.7139,737,805.7139,741,795.7139,737,799.7139" style="stroke:#181818;stroke-width:1.0;"/><line style="stroke:#181818;stroke-width:1.0;" x1="87" x2="87" y1="203.9326" y2="208.9326"/><line style="stroke:#181818;stroke-width:1.0;" x1="87" x2="365.75" y1="208.9326" y2="208.9326"/><line style="stroke:#181818;stroke-width:1.0;" x1="365.75" x2="365.75" y1="208.9326" y2="223.9326"/><polygon fill="#181818" points="361.75,213.9326,365.75,223.9326,369.75,213.9326,365.75,217.9326" style="stroke:#181818;stroke-width:1.0;"/><line style="stroke:#181818;stroke-width:1.0;" x1="365.75" x2="365.75" y1="623.8076" y2="628.8076"/><line style="stroke:#181818;stroke-width:1.0;" x1="365.75" x2="87" y1="628.8076" y2="628.8076"/><line style="stroke:#181818;stroke-width:1.0;" x1="87" x2="87" y1="628.8076" y2="643.8076"/><polygon fill="#181818" points="83,633.8076,87,643.8076,91,633.8076,87,637.8076" style="stroke:#181818;stroke-width:1.0;"/><line style="stroke:#181818;stroke-width:1.0;" x1="87" x2="87" y1="677.7764" y2="682.7764"/><line style="stroke:#181818;stroke-width:1.0;" x1="87" x2="737" y1="682.7764" y2="682.7764"/><line style="stroke:#181818;stroke-width:1.0;" x1="737" x2="737" y1="682.7764" y2="697.7764"/><polygon fill="#181818" points="733,687.7764,737,697.7764,741,687.7764,737,691.7764" style="stroke:#181818;stroke-width:1.0;"/><line style="stroke:#181818;stroke-width:1.0;" x1="725" x2="251" y1="817.7139" y2="817.7139"/><line style="stroke:#181818;stroke-width:1.0;" x1="251" x2="251" y1="817.7139" y2="849.7139"/><polygon fill="#181818" points="247,839.7139,251,849.7139,255,839.7139,251,843.7139" style="stroke:#181818;stroke-width:1.0;"/><line style="stroke:#181818;stroke-width:1.0;" x1="749" x2="761" y1="817.7139" y2="817.7139"/><line style="stroke:#181818;stroke-width:1.0;" x1="761" x2="761" y1="817.7139" y2="835.7139"/><line style="stroke:#181818;stroke-width:1.0;" x1="761" x2="480.5" y1="835.7139" y2="835.7139"/><line style="stroke:#181818;stroke-width:1.0;" x1="480.5" x2="480.5" y1="835.7139" y2="849.7139"/><polygon fill="#181818" points="476.5,839.7139,480.5,849.7139,484.5,839.7139,480.5,843.7139" style="stroke:#181818;stroke-width:1.0;"/><line style="stroke:#181818;stroke-width:1.0;" x1="251" x2="251" y1="937.6514" y2="959.6514"/><line style="stroke:#181818;stroke-width:1.0;" x1="251" x2="725" y1="959.6514" y2="959.6514"/><polygon fill="#181818" points="715,955.6514,725,959.6514,715,963.6514,719,959.6514" style="stroke:#181818;stroke-width:1.0;"/><line style="stroke:#181818;stroke-width:1.0;" x1="480.5" x2="480.5" y1="937.6514" y2="941.6514"/><line style="stroke:#181818;stroke-width:1.0;" x1="480.5" x2="767" y1="941.6514" y2="941.6514"/><line style="stroke:#181818;stroke-width:1.0;" x1="767" x2="767" y1="941.6514" y2="959.6514"/><line style="stroke:#181818;stroke-width:1.0;" x1="767" x2="749" y1="959.6514" y2="959.6514"/><polygon fill="#181818" points="759,955.6514,749,959.6514,759,963.6514,755,959.6514" style="stroke:#181818;stroke-width:1.0;"/><line style="stroke:#181818;stroke-width:1.0;" x1="737" x2="737" y1="971.6514" y2="976.6514"/><line style="stroke:#181818;stroke-width:1.0;" x1="737" x2="87" y1="976.6514" y2="976.6514"/><line style="stroke:#181818;stroke-width:1.0;" x1="87" x2="87" y1="976.6514" y2="991.6514"/><polygon fill="#181818" points="83,981.6514,87,991.6514,91,981.6514,87,985.6514" style="stroke:#181818;stroke-width:1.0;"/><text fill="#000000" font-family="sans-serif" font-size="18" lengthAdjust="spacing" textLength="86" x="43" y="66.75">Customer</text><text fill="#000000" font-family="sans-serif" font-size="18" lengthAdjust="spacing" textLength="97" x="333" y="66.75">Application</text><text fill="#000000" font-family="sans-serif" font-size="18" lengthAdjust="spacing" textLength="150" x="673" y="66.75">Payment Service</text><!--MD5=[e40c7098e9a3c8b8d7b1af351f8d767c]
@startuml
title Order Processing

|Customer|
start
:Browses products;
:Starts order;

|Application|
:Creates order with status "Pending";

repeat
  :Adds products to order;
  
  fork
    :Checks product availability;
  fork again
    :Logs user actions;
  end fork

  if () then (Product available)
    :Confirms addition;
  else (Product not available)
    :Shows out-of-stock message;
  endif
repeat while (Wants to add more)

|Customer|
:Confirms order;

|Payment Service|
:Creates payment session;
:Processes payment;

if () then (Payment successful)
  |Application|
  :Updates status to "Paid";
  :Shows success message;
else (Payment not successful)
  |Application|
  :Updates status to "Payment Failed";
  :Shows failure message;
endif

|Customer|
stop
@enduml

PlantUML version 1.2022.7(Mon Aug 22 17:01:30 UTC 2022)
(GPL source distribution)
Java Runtime: OpenJDK Runtime Environment
JVM: OpenJDK 64-Bit Server VM
Default Encoding: UTF-8
Language: en
Country: null
--></g></svg>